<?xml version="1.0" standalone="no"?><!DOCTYPE svg PUBLIC "-//W3C//DTD SVG 1.1//EN" "http://www.w3.org/Graphics/SVG/1.1/DTD/svg11.dtd"><svg class="icon" width="48px" height="48.00px" viewBox="0 0 1024 1024" version="1.1" xmlns="http://www.w3.org/2000/svg"><path fill="#d81e06" d="M510.541277 62.365396c-247.505024 0-448.155926 200.649879-448.155926 448.155926 0 247.512187 200.650903 448.164113 448.155926 448.164113 247.51321 0 448.164113-200.650903 448.164113-448.164113C958.70539 263.015276 758.054487 62.365396 510.541277 62.365396L510.541277 62.365396zM510.541277 912.323525c-221.542722 0-401.796062-180.252317-401.796062-401.803225 0-221.542722 180.25334-401.796062 401.796062-401.796062 221.550908 0 401.803225 180.252317 401.803225 401.796062C912.344502 732.071208 732.092185 912.323525 510.541277 912.323525L510.541277 912.323525zM801.601282 337.505827c-11.266601-12.82919-30.78412-14.097066-43.623543-2.829442l-330.956667 290.731524L274.876929 443.872367c-10.955516-13.088086-30.458709-14.806217-43.535539-3.834328-13.071713 10.973936-14.805194 30.459732-3.832282 43.533492l172.467003 205.78483c5.343705 6.362918 13.025665 10.320043 21.321608 10.956539 0.792039 0.062422 1.578961 0.093121 2.350534 0.093121 7.479345 0 14.743796-2.720971 20.402679-7.68196l354.73728-311.62539C811.600007 369.848443 812.867884 350.315574 801.601282 337.505827L801.601282 337.505827zM801.601282 337.505827" /></svg>