<?xml version="1.0" standalone="no"?><!DOCTYPE svg PUBLIC "-//W3C//DTD SVG 1.1//EN" "http://www.w3.org/Graphics/SVG/1.1/DTD/svg11.dtd"><svg class="icon" width="200px" height="200.00px" viewBox="0 0 1024 1024" version="1.1" xmlns="http://www.w3.org/2000/svg"><path d="M872.5 960h-47.8v-64h47.8c2.3 0 4.6-0.3 6.8-1l18.3 61.3c-8.1 2.5-16.5 3.7-25.1 3.7z m-111.8 0h-64v-64h64v64z m-128 0h-64v-64h64v64z m326.6-76.5l-63.5-8c0.1-1 0.2-2 0.2-3v-57h64v57c0 3.7-0.2 7.4-0.7 11z m0.7-132h-64v-64h64v64z m0-128h-64v-64h64v64zM128 512H64v-64h64v64z m832-16.5h-64v-64h64v64zM128 384H64v-64h64v64z m832-16.5h-64v-64h64v64zM128 256H64v-64h64v64z m832-16.5h-64v-64h64v64z m-830-97.7l-58.4-26.3C85.8 84.2 117.1 64 151.5 64h0.3v64h-0.3c-9.3 0-17.7 5.4-21.5 13.8z m760.2-5.8c-4.5-5.2-10.8-8-17.7-8h-16.8V64h16.8c25.2 0 49.2 10.9 65.8 29.8L890.2 136z m-98.4-8h-64V64h64v64z m-128 0h-64V64h64v64z m-128 0h-64V64h64v64z m-128 0h-64V64h64v64z m-128 0h-64V64h64v64z" fill="#BFD1EB" /><path d="M428.8 960H151.5c-48.2 0-87.5-39.2-87.5-87.5V595.2c0-48.2 39.2-87.5 87.5-87.5h277.3c48.2 0 87.5 39.2 87.5 87.5v277.3c0 48.3-39.3 87.5-87.5 87.5zM151.5 571.7c-12.9 0-23.5 10.5-23.5 23.5v277.3c0 12.9 10.5 23.5 23.5 23.5h277.3c12.9 0 23.5-10.5 23.5-23.5V595.2c0-12.9-10.5-23.5-23.5-23.5H151.5z" fill="#727272" /><path d="M829.9 347.5V194.1H676.5l-65.2 65.1h108.2L506.9 471.9l45.2 45.2 212.7-212.6v108.2z" fill="#497CAD" /></svg>